# xmcd CD database file
#
# Track frame offsets:
#	150
#	43951
#	97478
#	124745
#	154332
#
# Disc length: 2434 seconds
#
# Revision: 0
# Processed by: cddbd v1.5.2PL0 Copyright (c) Steve Scherf et al.
# Submitted via: CDex 1.70beta3
#
DISCID=48098005
DTITLE=Pat Metheny - TOKYO DAY DREAM LIVE EP
DYEAR=2008
DGENRE=Jazz
TTITLE0=TROMSB
TTITLE1=TRAVELINF FAST
TTITLE2=INORI
TTITLE3=BACK ARM and BLACKCHARGE
TTITLE4=THE NIGHT BECOMES YOU
EXTD=YEAR: 2008
EXTT0=
EXTT1=
EXTT2=
EXTT3=
EXTT4=
PLAYORDER=
